<?xml version="1.0" standalone="no"?>
<!DOCTYPE svg PUBLIC "-//W3C//DTD SVG 20010904//EN"
 "http://www.w3.org/TR/2001/REC-SVG-20010904/DTD/svg10.dtd">
<svg version="1.0" xmlns="http://www.w3.org/2000/svg"
 width="512.000000pt" height="512.000000pt" viewBox="0 0 512.000000 512.000000"
 preserveAspectRatio="xMidYMid meet">
<metadata>
Created by potrace 1.14, written by Peter Selinger 2001-2017
</metadata>
<g transform="translate(0.000000,512.000000) scale(0.100000,-0.100000)"
fill="#000000" stroke="none">
<path d="M2450 5101 c-101 -32 -171 -83 -226 -165 -115 -174 -80 -400 85 -539
l32 -27 -288 -396 c-158 -217 -295 -405 -303 -417 -8 -12 -57 -80 -108 -150
-84 -115 -94 -134 -99 -182 -5 -43 -2 -60 16 -88 24 -39 62 -68 92 -70 10 -1
19 -5 19 -9 0 -4 -46 -74 -103 -155 -56 -81 -119 -173 -139 -203 -21 -30 -50
-73 -66 -95 -15 -22 -76 -111 -135 -198 -93 -136 -107 -163 -107 -198 0 -94
57 -148 166 -157 35 -2 64 -6 64 -8 0 -2 -40 -68 -89 -146 -49 -79 -133 -213
-186 -298 -53 -85 -187 -299 -298 -475 -200 -318 -201 -320 -202 -377 0 -64
20 -100 74 -132 31 -18 66 -18 751 -18 l718 0 0 -238 c1 -265 5 -290 66 -333
30 -22 38 -22 371 -25 l341 -3 34 23 c70 47 75 67 77 308 1 118 2 227 2 241
l1 26 714 0 c692 0 714 0 747 19 50 30 79 78 79 134 0 52 13 30 -528 895
l-250 400 41 3 c105 6 154 32 182 98 14 35 12 93 -6 126 -6 10 -94 141 -197
290 -316 457 -342 497 -332 503 6 3 10 3 10 0 0 -3 17 3 38 15 66 37 96 117
69 182 -8 20 -80 125 -160 234 -422 581 -627 866 -627 874 0 5 14 18 30 30
112 80 173 271 134 418 -36 138 -152 252 -295 290 -55 15 -149 11 -209 -7z"/>
</g>
</svg>
